{
	"asset":{
		"generator":"Khronos glTF Blender I/O v5.0.21",
		"version":"2.0"
	},
	"scene":0,
	"scenes":[
		{
			"name":"Scene",
			"nodes":[
				0
			]
		}
	],
	"nodes":[
		{
			"mesh":0,
			"name":"Trunk",
			"scale":[
				4.1705169677734375,
				2.4515810012817383,
				2.9873082637786865
			],
			"translation":[
				8.113510131835938,
				2.673327684402466,
				1.8651626110076904
			]
		}
	],
	"materials":[
		{
			"doubleSided":true,
			"name":"Material.001",
			"pbrMetallicRoughness":{
				"baseColorTexture":{
					"index":0
				},
				"metallicFactor":0,
				"roughnessFactor":0.5
			}
		},
		{
			"doubleSided":true,
			"name":"Material",
			"pbrMetallicRoughness":{
				"baseColorTexture":{
					"index":1
				},
				"metallicFactor":0,
				"roughnessFactor":0.5
			}
		}
	],
	"meshes":[
		{
			"name":"Cylinder.009",
			"primitives":[
				{
					"attributes":{
						"POSITION":0,
						"NORMAL":1,
						"TEXCOORD_0":2
					},
					"indices":3,
					"material":0
				},
				{
					"attributes":{
						"POSITION":4,
						"NORMAL":5,
						"TEXCOORD_0":6
					},
					"indices":7,
					"material":1
				}
			]
		}
	],
	"textures":[
		{
			"sampler":0,
			"source":0
		},
		{
			"sampler":0,
			"source":0
		}
	],
	"images":[
		{
			"mimeType":"image/png",
			"name":"Color_Palette",
			"uri":"Color_Palette.png"
		}
	],
	"accessors":[
		{
			"bufferView":0,
			"componentType":5126,
			"count":2155,
			"max":[
				1,
				9.466920852661133,
				1
			],
			"min":[
				-1,
				-1,
				-4.134639739990234
			],
			"type":"VEC3"
		},
		{
			"bufferView":1,
			"componentType":5126,
			"count":2155,
			"type":"VEC3"
		},
		{
			"bufferView":2,
			"componentType":5126,
			"count":2155,
			"type":"VEC2"
		},
		{
			"bufferView":3,
			"componentType":5123,
			"count":3531,
			"type":"SCALAR"
		},
		{
			"bufferView":4,
			"componentType":5126,
			"count":1440,
			"max":[
				0.6916662454605103,
				9.858572006225586,
				1.9567501544952393
			],
			"min":[
				-1.442413330078125,
				4.268661022186279,
				-4.279079914093018
			],
			"type":"VEC3"
		},
		{
			"bufferView":5,
			"componentType":5126,
			"count":1440,
			"type":"VEC3"
		},
		{
			"bufferView":6,
			"componentType":5126,
			"count":1440,
			"type":"VEC2"
		},
		{
			"bufferView":7,
			"componentType":5123,
			"count":1440,
			"type":"SCALAR"
		}
	],
	"bufferViews":[
		{
			"buffer":0,
			"byteLength":25860,
			"byteOffset":0,
			"target":34962
		},
		{
			"buffer":0,
			"byteLength":25860,
			"byteOffset":25860,
			"target":34962
		},
		{
			"buffer":0,
			"byteLength":17240,
			"byteOffset":51720,
			"target":34962
		},
		{
			"buffer":0,
			"byteLength":7062,
			"byteOffset":68960,
			"target":34963
		},
		{
			"buffer":0,
			"byteLength":17280,
			"byteOffset":76024,
			"target":34962
		},
		{
			"buffer":0,
			"byteLength":17280,
			"byteOffset":93304,
			"target":34962
		},
		{
			"buffer":0,
			"byteLength":11520,
			"byteOffset":110584,
			"target":34962
		},
		{
			"buffer":0,
			"byteLength":2880,
			"byteOffset":122104,
			"target":34963
		}
	],
	"samplers":[
		{
			"magFilter":9729,
			"minFilter":9987
		}
	],
	"buffers":[
		{
			"byteLength":124984,
			"uri":"env_tree_HarryShanks_01.bin"
		}
	]
}
